<svg width="98" height="17" viewBox="0 0 98 17" fill="none" xmlns="http://www.w3.org/2000/svg">
<path d="M0.638 5H2.684L4.62 14.24H5.038L7.348 5.22H9.482L11.814 14.24H12.232L14.168 5H16.192L13.75 16H10.406L8.426 7.97L6.424 16H3.08L0.638 5ZM22.4558 16.242C20.7691 16.242 19.5665 15.8093 18.8478 14.944C18.1291 14.064 17.7698 12.678 17.7698 10.786C17.7698 8.74733 18.1511 7.23667 18.9138 6.254C19.6911 5.25667 20.8865 4.758 22.4998 4.758C25.4918 4.758 26.9878 6.45933 26.9878 9.862L26.8558 11.358H19.8378C19.8525 12.15 19.9551 12.766 20.1458 13.206C20.3365 13.6313 20.6445 13.9393 21.0698 14.13C21.4951 14.3207 22.0965 14.416 22.8738 14.416C23.3285 14.416 23.8418 14.4087 24.4138 14.394C24.9858 14.3647 25.4991 14.328 25.9538 14.284L26.5698 14.218L26.6138 15.802C24.8978 16.0953 23.5118 16.242 22.4558 16.242ZM24.9418 9.752C24.9418 8.564 24.7511 7.72067 24.3698 7.222C24.0031 6.72333 23.3798 6.474 22.4998 6.474C21.5758 6.474 20.9011 6.738 20.4758 7.266C20.0505 7.77933 19.8305 8.608 19.8158 9.752H24.9418ZM33.2982 16.22C32.3009 16.22 31.2375 16.1613 30.1082 16.044L29.4262 15.978V0.336H31.4722V5.484C32.0295 5.23467 32.5429 5.05133 33.0122 4.934C33.4962 4.81667 34.0169 4.758 34.5742 4.758C35.5422 4.758 36.3122 4.94867 36.8842 5.33C37.4709 5.71133 37.8962 6.32 38.1602 7.156C38.4389 7.97733 38.5782 9.07733 38.5782 10.456C38.5782 11.9373 38.4095 13.096 38.0722 13.932C37.7495 14.7533 37.2069 15.34 36.4442 15.692C35.6962 16.044 34.6475 16.22 33.2982 16.22ZM33.3642 14.394C34.2002 14.394 34.8382 14.2693 35.2782 14.02C35.7329 13.756 36.0482 13.3453 36.2242 12.788C36.4002 12.216 36.4882 11.4313 36.4882 10.434C36.4882 9.466 36.4075 8.71067 36.2462 8.168C36.0995 7.61067 35.8502 7.21467 35.4982 6.98C35.1609 6.73067 34.6915 6.606 34.0902 6.606C33.3569 6.606 32.4842 6.782 31.4722 7.134V14.284C32.4255 14.3573 33.0562 14.394 33.3642 14.394Z" fill="#006CEA"/>
<path d="M44.6992 16.242C43.8485 16.242 42.7412 16.1247 41.3772 15.89L40.7172 15.78L40.8052 14.02C42.5799 14.2693 43.8485 14.394 44.6112 14.394C45.3885 14.394 45.9752 14.2767 46.3712 14.042C46.7672 13.8073 46.9652 13.426 46.9652 12.898C46.9652 12.5167 46.8625 12.2307 46.6572 12.04C46.4665 11.8347 46.2172 11.688 45.9092 11.6C45.6012 11.4973 45.1612 11.402 44.5892 11.314L44.0612 11.226C43.2252 11.094 42.5579 10.9253 42.0592 10.72C41.5752 10.5147 41.2012 10.214 40.9372 9.818C40.6732 9.422 40.5412 8.87933 40.5412 8.19C40.5412 5.91667 41.9345 4.78 44.7212 4.78C45.6012 4.78 46.7012 4.89 48.0212 5.11L48.6592 5.242L48.6152 6.958C46.9725 6.72333 45.7112 6.606 44.8312 6.606C43.3352 6.606 42.5872 7.06067 42.5872 7.97C42.5872 8.30733 42.6825 8.57133 42.8732 8.762C43.0639 8.938 43.3059 9.07 43.5992 9.158C43.9072 9.246 44.3399 9.34133 44.8972 9.444C44.9999 9.45867 45.2052 9.49533 45.5132 9.554C46.3785 9.71533 47.0532 9.906 47.5372 10.126C48.0359 10.3313 48.4025 10.6393 48.6372 11.05C48.8865 11.4607 49.0112 12.018 49.0112 12.722C49.0112 13.9393 48.6592 14.834 47.9552 15.406C47.2512 15.9633 46.1659 16.242 44.6992 16.242ZM55.5847 16.242C53.8981 16.242 52.6954 15.8093 51.9767 14.944C51.2581 14.064 50.8987 12.678 50.8987 10.786C50.8987 8.74733 51.2801 7.23667 52.0427 6.254C52.8201 5.25667 54.0154 4.758 55.6287 4.758C58.6207 4.758 60.1167 6.45933 60.1167 9.862L59.9847 11.358H52.9667C52.9814 12.15 53.0841 12.766 53.2747 13.206C53.4654 13.6313 53.7734 13.9393 54.1987 14.13C54.6241 14.3207 55.2254 14.416 56.0027 14.416C56.4574 14.416 56.9707 14.4087 57.5427 14.394C58.1147 14.3647 58.6281 14.328 59.0827 14.284L59.6987 14.218L59.7427 15.802C58.0267 16.0953 56.6407 16.242 55.5847 16.242ZM58.0707 9.752C58.0707 8.564 57.8801 7.72067 57.4987 7.222C57.1321 6.72333 56.5087 6.474 55.6287 6.474C54.7047 6.474 54.0301 6.738 53.6047 7.266C53.1794 7.77933 52.9594 8.608 52.9447 9.752H58.0707ZM62.5551 5H64.5791V6.386C65.8844 5.55 67.1751 5.00733 68.4511 4.758V6.826C67.8791 6.94333 67.2851 7.10467 66.6691 7.31C66.0531 7.51533 65.5398 7.71333 65.1291 7.904L64.6011 8.146V16H62.5551V5ZM69.2985 5H71.4545L73.7865 14.24H74.5345L76.9545 5H79.0445L76.0965 16H72.2465L69.2985 5ZM85.0398 16.242C83.3531 16.242 82.1505 15.8093 81.4318 14.944C80.7131 14.064 80.3538 12.678 80.3538 10.786C80.3538 8.74733 80.7351 7.23667 81.4978 6.254C82.2751 5.25667 83.4705 4.758 85.0838 4.758C88.0758 4.758 89.5718 6.45933 89.5718 9.862L89.4398 11.358H82.4218C82.4365 12.15 82.5391 12.766 82.7298 13.206C82.9205 13.6313 83.2285 13.9393 83.6538 14.13C84.0791 14.3207 84.6805 14.416 85.4578 14.416C85.9125 14.416 86.4258 14.4087 86.9978 14.394C87.5698 14.3647 88.0831 14.328 88.5378 14.284L89.1538 14.218L89.1978 15.802C87.4818 16.0953 86.0958 16.242 85.0398 16.242ZM87.5258 9.752C87.5258 8.564 87.3351 7.72067 86.9538 7.222C86.5871 6.72333 85.9638 6.474 85.0838 6.474C84.1598 6.474 83.4851 6.738 83.0598 7.266C82.6345 7.77933 82.4145 8.608 82.3998 9.752H87.5258ZM92.0102 5H94.0342V6.386C95.3395 5.55 96.6302 5.00733 97.9062 4.758V6.826C97.3342 6.94333 96.7402 7.10467 96.1242 7.31C95.5082 7.51533 94.9949 7.71333 94.5842 7.904L94.0562 8.146V16H92.0102V5Z" fill="#454545"/>
</svg>
